PathFileType	4	(X/Y/Z)	Patient4_TMGait_0pt6_02_right_42.trc.trc
DataRate	CameraRate	NumFrames	NumMarkers	Units	OrigDataRate	OrigDataStartFrame	OrigNumFrames
85.365853658537	85.365853658537	6	33	mm	85.365853658537	124	       141
Frame#	Time	Sacral			L.Shoulder			Chest			R.Shoulder			Neck			R.ASIS			L.ASIS			R.Thigh.Superior			R.Thigh.Lateral			R.Thigh.Inferior			R.Patella			L.Thigh.Superior			L.Thigh.Lateral			L.Thigh.Inferior			L.Patella			L.Shank.Superior			L.Shank.Lateral			L.Shank.Inferior			R.Shank.Superior			R.Shank.Lateral			R.Shank.Inferior			R.Heel			R.Midfoot.Superior			R.Midfoot.Lateral			R.Toe			L.Heel			L.Midfoot.Lateral			L.Midfoot.Superior			L.Toe			L.Elbow			L.Wrist			R.Elbow			R.Wrist			
		X1	Y1	Z1	X2	Y2	Z2	X3	Y3	Z3	X4	Y4	Z4	X5	Y5	Z5	X6	Y6	Z6	X7	Y7	Z7	X8	Y8	Z8	X9	Y9	Z9	X10	Y10	Z10	X11	Y11	Z11	X12	Y12	Z12	X13	Y13	Z13	X14	Y14	Z14	X15	Y15	Z15	X16	Y16	Z16	X17	Y17	Z17	X18	Y18	Z18	X19	Y19	Z19	X20	Y20	Z20	X21	Y21	Z21	X22	Y22	Z22	X23	Y23	Z23	X24	Y24	Z24	X25	Y25	Z25	X26	Y26	Z26	X27	Y27	Z27	X28	Y28	Z28	X29	Y29	Z29	X30	Y30	Z30	X31	Y31	Z31	X32	Y32	Z32	X33	Y33	Z33	

124	52.170857142857	872.861948225237	1003.067409645102	465.469977100274	1094.494927184531	1413.810785399257	282.236954599628	1178.656615482473	1342.388399916081	451.442098763955	1089.449966349629	1434.448625494641	612.379955217431	1087.375293228110	1478.795017325384	428.898764797509	1092.634110311293	923.201392669772	587.773277497226	1088.351372410272	954.421523799011	313.125063721401	1163.905672850896	753.339028336158	556.748006998338	1118.215337849105	631.062441989791	628.536862188657	1208.003871490732	594.976693178764	547.982761270129	1240.704971260928	509.994973939924	563.407129009873	1081.197462625947	728.964679203754	334.146228401658	957.911528320735	640.199950535028	274.839529160499	1015.625252748848	543.282947365592	335.246622676799	1000.623945719835	477.655079787568	344.207655175595	966.222574997705	414.502563091725	337.727031529541	863.472740453784	309.044826366636	290.017929885290	907.118865093219	194.127714172330	362.696385629837	1220.959843363206	421.193040904503	573.302762033790	1161.657725935732	309.187886092969	633.880291981601	1227.583741191266	221.108102757375	582.156893211941	1126.098096112121	43.704482451043	552.659507705876	1293.667082695771	105.952194528196	591.553819391812	1209.565089375880	38.437498065559	627.514015073142	1415.368551355414	59.831601045997	619.108117399673	769.915014737553	41.827815604935	411.872973384039	843.673184013227	35.747615381752	331.837668975622	927.559938743805	96.361665580166	355.957419042416	1055.549092941237	42.356231721212	330.264336521493	1133.994627590367	1089.277793428350	121.173409434813	1387.132508325735	1058.781597062005	143.542978877844	889.071220623537	1167.275550276094	737.636064579444	807.993699352647	918.031527511636	758.333726556621	
125	52.182571428571	873.956801743751	1001.800305255902	468.233312961621	1094.589867973846	1412.766011416588	284.899041548760	1179.344651154430	1341.545934274423	453.927876636937	1090.225499498971	1433.344906679904	615.153035822698	1087.777950114346	1477.802394476820	431.631488787706	1094.192890072527	921.693965831191	589.912964476991	1089.586957704041	953.600226088775	315.503832543139	1165.196078123000	751.026145513741	558.603946270919	1117.192801565319	628.827824543728	628.875017553755	1207.080508378586	592.804839523371	548.530134802060	1238.359260238943	507.731919375697	562.782335620489	1081.609270446995	727.896230328489	335.882362900056	957.559955406892	639.844728669584	276.554737330399	1014.671475201990	542.354360532080	336.739819627962	999.240372247231	476.347074593646	345.578046557579	963.866533295331	413.515256449604	338.889194218440	859.609134358712	309.616203792212	290.897515486528	901.519852292641	193.786599601406	363.083375516116	1219.005778695100	418.479911973968	572.848867542018	1159.623449725140	306.408386433221	633.050584232566	1225.144611252597	218.433098122152	580.822287753354	1122.735919027036	42.340326166188	551.311626122083	1290.472664429583	103.707422889721	589.285738496524	1206.149000486279	37.346579329501	626.242646755184	1412.188537834724	57.137741737786	617.208740953442	762.842883510745	42.469700207207	411.618061923416	836.668224452338	35.908444017471	331.732347781373	920.696438506239	96.388338970244	355.879914697526	1048.584304002280	42.015474802578	330.235686799488	1132.150853733235	1087.522429890147	124.190102730980	1385.444383564664	1058.370724165840	146.457405129307	891.598361427673	1164.503228273888	740.271387715368	811.395226383432	914.826357750920	759.915718453692	
126	52.194285714286	874.964668006523	1000.911464344438	471.026552197216	1094.801430768430	1412.029010353613	287.673255505759	1180.147456688196	1340.934633588410	456.516681662801	1091.124074146760	1432.406669550536	618.066529071286	1088.358953255214	1477.102973522911	434.502832030818	1095.690848505742	920.565277282097	592.161047396003	1090.744692223073	952.967043410618	317.964784909816	1166.876197365643	749.635492950639	560.411990834387	1116.868681565097	627.410920010479	629.255101022593	1206.901916962997	591.569131336504	549.225345416076	1236.708664036491	506.073429573298	562.386201247490	1082.175174333280	727.062036780498	337.767380175726	957.543141934175	639.534549053954	278.446232492571	1014.258089951626	541.550395788736	338.374632333129	998.447085895825	475.043151796021	347.042991432090	962.025301095690	412.523411640604	340.147500656604	856.092547617464	310.367068546629	291.934414511058	896.143064735453	193.546320075771	363.530030899124	1217.360767308880	416.288793529825	572.545429136781	1157.495046127588	304.496351284328	632.628854546290	1221.884191870302	216.246102502839	579.725767215015	1117.589371015190	41.701286735686	550.298114208496	1285.615370890514	101.907431162105	587.467172709624	1200.912912792504	36.793280078552	625.342020358026	1407.240455151291	54.654089322094	615.794574576994	755.807459987889	43.407611846707	411.360547805029	829.693354237294	36.186765134615	331.637525481544	913.967877844884	96.445747204643	355.768244048593	1041.640500574853	41.619219047957	330.204014230860	1129.914098394564	1085.836590720789	127.530248401691	1383.330820219937	1056.807715076824	149.479563337156	895.094309437260	1161.057684825174	743.081707381853	816.312090215924	910.793373520914	761.655972303129	
127	52.206000000000	875.881910357588	1000.452049490876	473.839564077239	1095.177860765223	1411.653804749187	290.544251759546	1181.064236598449	1340.584100993099	459.200206877912	1092.157574734113	1431.694115043066	621.094443974564	1089.137813046152	1476.737735669488	437.489576939893	1097.114803480096	919.857246539415	594.518466439555	1091.742660438312	952.581443588851	320.488394298053	1168.830214903427	749.126193062722	562.135692794734	1117.163430247549	626.773589871087	629.737347781389	1207.305662114129	591.132262753073	550.077473591539	1235.610400751610	504.965359898294	562.274196410177	1082.864102843811	726.522637813646	339.760244105992	957.875049450686	639.282048167969	280.486884639122	1014.468778470717	540.902710457791	340.094455549031	998.348338404825	473.755012183740	348.514960085566	960.770993408356	411.547209615621	341.446477407800	852.971231891897	311.344563492132	293.119215978052	891.057712923186	193.456024515280	364.005389383872	1215.954845964643	414.621522367228	572.423307777016	1155.371190084302	303.366979210325	632.684516948794	1218.020267977925	214.550502295819	578.911376611871	1111.157826200389	41.578423877633	549.649512889408	1279.531968290217	100.567271827662	586.164435836186	1194.383401673425	36.625982847422	624.820177913683	1401.011388284872	52.545592148501	614.871098020376	748.842537387736	44.737886729746	411.110826168535	822.766021286906	36.634842056012	331.559134327970	907.426544909641	96.547670003688	355.606828279046	1034.717040391634	41.175535018346	330.171722676482	1127.271362677318	1084.298027708853	131.194049881170	1380.762661977898	1054.101267619900	152.601167361550	899.512218334214	1157.090219201366	746.030689781645	822.739322058452	906.083077963351	763.550303783009	
128	52.217714285714	876.718125508429	1000.435776605560	476.681451418635	1095.739471559795	1411.673491041680	293.497022050111	1182.081118451293	1340.508883344684	461.963223797356	1093.332116595086	1431.251044424821	624.209899166350	1090.109821266309	1476.725617795318	440.566824619881	1098.466656922831	919.584344455442	596.978294163635	1092.509996055383	952.481107197976	323.052395289860	1170.901442764354	749.354863270275	563.760730165071	1117.905894442327	626.798954392487	630.378899569249	1208.041454194007	591.276801206682	551.083167740402	1234.832946161319	504.298640201195	562.475200345000	1083.672820159698	726.322207629571	341.809056949729	958.593196800046	639.087070828750	282.642515268392	1015.410537497894	540.428430346981	341.833070143905	999.074092809226	472.487549166605	349.896711491106	960.193824011887	410.601561289843	342.727702019194	850.318241344995	312.593979185053	294.431891567778	886.348159977891	193.566890145455	364.474359026792	1214.641978347161	413.423393273608	572.495775996180	1153.254493209741	302.870376270391	633.213109696730	1213.725480721109	213.304721644443	578.384285960498	1103.913141335111	41.775636263620	549.348026633458	1272.643472384118	99.654436620934	585.370913840874	1187.052117734735	36.701625214876	624.639596315053	1393.959738184632	50.897329030487	614.388401041452	741.995922594637	46.572196523665	410.877537442638	815.911959669888	37.322130814077	331.501659671764	901.130605567181	96.714799683491	355.381628725650	1027.812952872393	40.698012760849	330.142505699818	1124.219449558060	1082.981391753762	135.172854973181	1377.691778939252	1050.262532121764	155.817437654773	904.792773053548	1152.762554179285	749.082323032850	830.676494613291	900.860314033668	765.581287909525	
129	52.229428571429	877.490829276282	1000.838893151337	479.578806169771	1096.469751841159	1412.097193431934	296.519354606165	1183.172123885565	1340.708984157757	464.784100358431	1094.646139558332	1431.098683830243	627.388433693878	1091.244525462093	1477.061949997259	443.712972809296	1099.758791527043	919.733522562303	599.521331232370	1092.999567157529	952.674456417270	325.632224936618	1172.907039189873	750.092986385887	565.303945080307	1118.843653903209	627.309760217876	631.220349466875	1208.802264355447	591.746217270766	552.224240792535	1234.088102770558	503.932558498509	562.973499917703	1084.630643550724	726.483328717267	343.860577513707	959.761727815353	638.936187544122	284.875113503105	1017.206686915996	540.128680425488	343.525377952850	1000.771368951124	471.239788742348	351.097729166950	960.399012889705	409.697141124344	343.940183558459	848.234898730499	314.157331303969	295.842402779983	882.110199374744	193.933109892947	364.904061643234	1213.221041940097	412.600189137919	572.755249468080	1151.053643834741	302.820319050189	634.139215883584	1209.111724660163	212.432952716220	578.117440582455	1096.251745683359	42.126394518274	549.340024968089	1265.309792831361	99.098770346845	585.021355445378	1179.326934612868	36.899644432717	624.731697501668	1386.471109462361	49.718233239376	614.259176449705	735.331466592474	49.039799922966	410.665647313612	809.167422759867	38.340083906407	331.467142544498	895.142430558168	96.978690423476	355.082814290197	1020.927778064216	40.203150371368	330.121152119847	1120.767387417051	1081.951326706520	139.448368700415	1374.050310791560	1045.304933579510	159.127315383045	910.869599342345	1148.231663549527	752.207025902886	840.130862778673	895.292522810363	767.718676220521	
